<svg width="24" height="44" viewBox="0 0 24 44" fill="none" xmlns="http://www.w3.org/2000/svg">
<path d="M23.4151 40.585C23.6009 40.7708 23.7483 40.9914 23.8489 41.2342C23.9495 41.477 24.0012 41.7372 24.0012 42C24.0012 42.2628 23.9495 42.523 23.8489 42.7658C23.7483 43.0086 23.6009 43.2292 23.4151 43.415C23.2293 43.6008 23.0087 43.7482 22.7659 43.8488C22.5231 43.9494 22.2629 44.0011 22.0001 44.0011C21.7373 44.0011 21.4771 43.9494 21.2343 43.8488C20.9915 43.7482 20.7709 43.6008 20.5851 43.415L0.585108 23.415C0.399155 23.2293 0.251638 23.0087 0.15099 22.7659C0.050341 22.5231 -0.00146484 22.2628 -0.00146484 22C-0.00146484 21.7372 0.050341 21.4769 0.15099 21.2341C0.251638 20.9913 0.399155 20.7707 0.585108 20.585L20.5851 0.584998C20.9604 0.209717 21.4694 -0.0011139 22.0001 -0.00111389C22.5308 -0.00111388 23.0398 0.209717 23.4151 0.584998C23.7904 0.960279 24.0012 1.46927 24.0012 2C24.0012 2.53073 23.7904 3.03972 23.4151 3.415L4.82761 22L23.4151 40.585Z" fill="white"/>
</svg>
