<svg width="14" height="14" viewBox="0 0 14 14" fill="none" xmlns="http://www.w3.org/2000/svg">
<path d="M7.20984 1.34961C6.28874 1.34941 5.38328 1.58768 4.58159 2.04124C3.7799 2.4948 3.1093 3.14819 2.63505 3.93782C2.16079 4.72744 1.89906 5.6264 1.87531 6.54719C1.85156 7.46798 2.06661 8.37924 2.49953 9.19226L1.91728 10.939C1.86905 11.0836 1.86205 11.2388 1.89707 11.3872C1.93208 11.5356 2.00773 11.6713 2.11553 11.7791C2.22332 11.8869 2.35901 11.9625 2.50739 11.9975C2.65576 12.0325 2.81096 12.0255 2.95558 11.9773L4.70232 11.3951C5.41783 11.7756 6.21063 11.9882 7.02056 12.0166C7.83048 12.045 8.63623 11.8886 9.37666 11.5591C10.1171 11.2296 10.7727 10.7358 11.2938 10.1151C11.8149 9.49438 12.1877 8.76314 12.384 7.97684C12.5802 7.19055 12.5948 6.36987 12.4265 5.57711C12.2583 4.78435 11.9116 4.04033 11.4129 3.40154C10.9142 2.76275 10.2765 2.24597 9.54822 1.89044C8.81995 1.5349 8.02026 1.34994 7.20984 1.34961ZM7.20984 11.1991C6.41622 11.1996 5.63653 10.9906 4.94959 10.5932C4.89929 10.5641 4.84337 10.5459 4.78553 10.54C4.72769 10.5341 4.66925 10.5405 4.61409 10.5589L2.69549 11.1991L3.33519 9.2805C3.35363 9.22537 3.36015 9.16695 3.35431 9.10911C3.34848 9.05127 3.33042 8.99533 3.30134 8.945C2.80372 8.08466 2.60393 7.08415 2.73295 6.09868C2.86198 5.11321 3.31262 4.19786 4.01496 3.49464C4.71729 2.79141 5.63207 2.33962 6.61738 2.20935C7.60269 2.07907 8.60345 2.2776 9.46441 2.77413C10.3254 3.27067 10.9984 4.03745 11.3791 4.95552C11.7598 5.8736 11.8269 6.89165 11.57 7.85175C11.3131 8.81185 10.7465 9.66033 9.95812 10.2656C9.16977 10.8708 8.20372 11.1989 7.20984 11.1991Z" fill="#526371"/>
</svg>
