<svg width="14" height="14" viewBox="0 0 14 14" fill="none" xmlns="http://www.w3.org/2000/svg">
<path d="M1.50618 6.68474C1.50727 5.70548 1.89676 4.76664 2.5892 4.0742C3.28164 3.38176 4.22048 2.99227 5.19974 2.99118H10.7755L10.2445 2.46074C10.1675 2.38374 10.1243 2.27929 10.1243 2.17039C10.1243 2.06148 10.1675 1.95704 10.2445 1.88003C10.3215 1.80303 10.426 1.75977 10.5349 1.75977C10.6438 1.75977 10.7482 1.80303 10.8252 1.88003L12.0564 3.11122C12.0946 3.14933 12.1248 3.1946 12.1455 3.24442C12.1662 3.29424 12.1768 3.34764 12.1768 3.40157C12.1768 3.45551 12.1662 3.50891 12.1455 3.55873C12.1248 3.60855 12.0946 3.65382 12.0564 3.69193L10.8252 4.92312C10.7482 5.00012 10.6438 5.04338 10.5349 5.04338C10.426 5.04338 10.3215 5.00012 10.2445 4.92312C10.1675 4.84611 10.1243 4.74166 10.1243 4.63276C10.1243 4.52386 10.1675 4.41941 10.2445 4.34241L10.7755 3.81197H5.19974C4.43808 3.81278 3.70786 4.11571 3.16929 4.65428C2.63071 5.19286 2.32779 5.92308 2.32697 6.68474C2.32697 6.79358 2.28373 6.89797 2.20677 6.97493C2.12981 7.05189 2.02542 7.09513 1.91658 7.09513C1.80773 7.09513 1.70335 7.05189 1.62638 6.97493C1.54942 6.89797 1.50618 6.79358 1.50618 6.68474ZM11.7661 6.27434C11.6572 6.27434 11.5528 6.31758 11.4759 6.39454C11.3989 6.47151 11.3557 6.57589 11.3557 6.68474C11.3549 7.44639 11.0519 8.17662 10.5134 8.71519C9.97478 9.25376 9.24456 9.55669 8.4829 9.5575H2.90717L3.43812 9.02707C3.47625 8.98894 3.50649 8.94367 3.52713 8.89385C3.54777 8.84403 3.55839 8.79064 3.55839 8.73671C3.55839 8.68279 3.54777 8.62939 3.52713 8.57957C3.50649 8.52976 3.47625 8.48449 3.43812 8.44636C3.39999 8.40823 3.35472 8.37798 3.3049 8.35735C3.25508 8.33671 3.20169 8.32609 3.14776 8.32609C3.09384 8.32609 3.04044 8.33671 2.99062 8.35735C2.94081 8.37798 2.89554 8.40823 2.85741 8.44636L1.62622 9.67754C1.58807 9.71566 1.5578 9.76092 1.53714 9.81074C1.51649 9.86056 1.50586 9.91397 1.50586 9.9679C1.50586 10.0218 1.51649 10.0752 1.53714 10.1251C1.5578 10.1749 1.58807 10.2201 1.62622 10.2583L2.85741 11.4894C2.89554 11.5276 2.94081 11.5578 2.99062 11.5785C3.04044 11.5991 3.09384 11.6097 3.14776 11.6097C3.20169 11.6097 3.25508 11.5991 3.3049 11.5785C3.35472 11.5578 3.39999 11.5276 3.43812 11.4894C3.47625 11.4513 3.50649 11.406 3.52713 11.3562C3.54777 11.3064 3.55839 11.253 3.55839 11.1991C3.55839 11.1452 3.54777 11.0918 3.52713 11.0419C3.50649 10.9921 3.47625 10.9469 3.43812 10.9087L2.90717 10.3783H8.4829C9.46216 10.3772 10.401 9.98772 11.0934 9.29528C11.7859 8.60284 12.1754 7.664 12.1765 6.68474C12.1765 6.57589 12.1332 6.47151 12.0563 6.39454C11.9793 6.31758 11.8749 6.27434 11.7661 6.27434Z" fill="#526371"/>
</svg>
