<svg width="27" height="27" viewBox="0 0 27 27" fill="none" xmlns="http://www.w3.org/2000/svg">
<path d="M21.0123 15.3201C22.2489 16.2351 22.9822 17.371 22.9822 18.6033C22.9822 21.6249 18.5718 24.0752 13.1327 24.0752C7.69358 24.0752 3.2832 21.6249 3.2832 18.6033C3.2832 17.371 4.01644 16.2351 5.2531 15.3201M13.9633 8.75382C12.2824 7.78639 10.8662 7.42524 9.73681 7.43728M9.73681 7.43728C7.6706 7.46026 6.56637 8.73522 6.56637 9.84821C6.56637 11.6616 9.40521 13.1314 12.9062 13.1314C16.4071 13.1314 18.4635 11.4701 19.2459 9.84821C20.8306 6.56505 18.1899 2.73469 12.3776 2.1875C13.6109 3.68134 14.8082 6.82223 9.73681 7.43728Z" stroke="black" stroke-width="1.64158" stroke-linecap="round" stroke-linejoin="round"/>
<path d="M18.6198 10.9434C20.6127 11.7324 21.8876 12.9417 21.8876 14.2988C21.8876 16.6769 17.9675 18.6041 13.1325 18.6041C8.29754 18.6041 4.37744 16.6769 4.37744 14.2988C4.37744 13.0873 5.39522 11.9929 7.03243 11.2104" stroke="black" stroke-width="1.64158" stroke-linecap="round" stroke-linejoin="round"/>
</svg>
