<svg width="15" height="14" viewBox="0 0 15 14" fill="none" xmlns="http://www.w3.org/2000/svg">
<g clip-path="url(#clip0_264_1865)">
<path d="M12.0438 5.86452V10.7893C12.0438 11.0069 11.9574 11.2157 11.8034 11.3696C11.6495 11.5236 11.4407 11.6101 11.223 11.6101H3.83593C3.61824 11.6101 3.40947 11.5236 3.25554 11.3696C3.10161 11.2157 3.01514 11.0069 3.01514 10.7893V5.86452C3.01514 5.64683 3.10161 5.43806 3.25554 5.28413C3.40947 5.1302 3.61824 5.04373 3.83593 5.04373H5.06711C5.17596 5.04373 5.28034 5.08697 5.35731 5.16393C5.43427 5.24089 5.47751 5.34528 5.47751 5.45412C5.47751 5.56297 5.43427 5.66735 5.35731 5.74432C5.28034 5.82128 5.17596 5.86452 5.06711 5.86452H3.83593V10.7893H11.223V5.86452H9.99186C9.88301 5.86452 9.77863 5.82128 9.70166 5.74432C9.6247 5.66735 9.58146 5.56297 9.58146 5.45412C9.58146 5.34528 9.6247 5.24089 9.70166 5.16393C9.77863 5.08697 9.88301 5.04373 9.99186 5.04373H11.223C11.4407 5.04373 11.6495 5.1302 11.8034 5.28413C11.9574 5.43806 12.0438 5.64683 12.0438 5.86452ZM5.76786 3.6925L7.11909 2.34076V7.0957C7.11909 7.20455 7.16233 7.30893 7.23929 7.3859C7.31626 7.46286 7.42064 7.5061 7.52948 7.5061C7.63833 7.5061 7.74271 7.46286 7.81968 7.3859C7.89664 7.30893 7.93988 7.20455 7.93988 7.0957V2.34076L9.29111 3.6925C9.36811 3.76951 9.47256 3.81277 9.58146 3.81277C9.69036 3.81277 9.79481 3.76951 9.87182 3.6925C9.94882 3.6155 9.99208 3.51105 9.99208 3.40215C9.99208 3.29324 9.94882 3.1888 9.87182 3.11179L7.81984 1.05982C7.78172 1.02166 7.73646 0.991389 7.68664 0.970736C7.63682 0.950083 7.58342 0.939453 7.52948 0.939453C7.47555 0.939453 7.42215 0.950083 7.37233 0.970736C7.32251 0.991389 7.27724 1.02166 7.23913 1.05982L5.18715 3.11179C5.11015 3.1888 5.06688 3.29324 5.06688 3.40215C5.06688 3.51105 5.11015 3.61549 5.18715 3.6925C5.26416 3.76951 5.3686 3.81277 5.47751 3.81277C5.58641 3.81277 5.69086 3.76951 5.76786 3.6925Z" fill="#526371"/>
</g>
<defs>
<clipPath id="clip0_264_1865">
<rect width="13.1326" height="13.1326" fill="white" transform="translate(0.962891 0.119141)"/>
</clipPath>
</defs>
</svg>
